General
Complete name                            :[ ArabJoy.Com ] - People.Like.Us.2012.480p.BluRay.x264.By.ToXiiC.mkv
Format                                   : RealMedia
File size                                : 340 MiB
Duration                                 : 1h 54mn
Overall bit rate                         : 403 Kbps
Performer                                : ArabJoy.Com
Copyright                                : ArabJoy.Com

Video
ID                                       : 1
Format                                   : RealVideo 4
Codec ID                                 : RV40
Codec ID/Info                            : Based on AVC (H.264), Real Player 9
Duration                                 : 1h 54mn
Bit rate                                 : 371 Kbps
Width                                    : 720 pixels
Height                                   : 408 pixels
Display aspect ratio                     : 16:9
Frame rate                               : 23.976 fps
Bits/(Pixel*Frame)                       : 0.053
Stream size                              : 304 MiB (89%)

Audio
ID                                       : 0
Format                                   : Cooker
Codec ID                                 : cook
Codec ID/Info                            : Based on G.722.1, Real Player 6
Duration                                 : 1h 54mn
Bit rate                                 : 32.0 Kbps
Channel(s)                               : 2 channels
Sampling rate                            : 22.05 KHz
Bit depth                                : 16 bits
Stream size                              : 26.3 MiB (8%)

Subtitle : Arabic ..